<?xml version="1.0" encoding="UTF-8"?>
<svg id="Ebene_2" xmlns="http://www.w3.org/2000/svg" viewBox="0 0 181.62 235.5">
  <defs>
    <style>
      .cls-1 {
        font-family: ArialMT, Arial;
        font-size: 22.85px;
      }

      .cls-1, .cls-2, .cls-3 {
        fill: #2dfa87;
      }

      .cls-2 {
        stroke: #2dfa87;
        stroke-miterlimit: 10;
        stroke-width: 3px;
      }

      .cls-3 {
        font-family: Arial-ItalicMT, Arial;
        font-size: 16px;
        font-style: italic;
      }

      .cls-4 {
        letter-spacing: -.04em;
      }
    </style>
  </defs>
  <g id="Ebene_1-2" data-name="Ebene_1">
    <g>
      <polygon class="cls-2" points="85.77 91.47 85.77 103.12 80.72 100.2 75.68 97.29 65.59 91.47 60.54 88.56 55.5 85.64 50.45 82.73 45.41 79.82 40.37 76.91 35.32 73.99 30.28 71.08 25.23 68.17 25.23 91.47 30.27 94.38 35.32 97.29 40.36 100.21 45.41 103.12 50.45 106.03 55.5 108.94 60.54 111.85 60.54 111.85 65.59 114.77 70.63 117.68 75.68 120.59 80.72 123.51 85.77 126.42 85.77 172.46 81.2 169.83 75.68 166.64 71.11 164 65.59 160.81 61.02 158.18 55.5 154.99 50.93 152.35 45.41 149.16 40.84 146.53 35.32 143.34 30.75 140.7 25.23 137.51 20.66 134.88 15.62 131.97 15.62 120.87 20.18 123.51 25.23 126.42 30.27 129.33 35.32 132.24 40.36 135.15 45.41 138.07 50.45 140.98 55.5 143.89 65.59 149.72 70.63 152.63 75.68 155.54 75.68 132.24 65.59 126.42 60.54 123.5 55.5 120.59 50.45 117.68 50.45 117.68 45.41 114.77 40.37 111.85 25.23 103.12 20.18 100.2 15.62 97.57 15.62 50.97 20.19 53.61 25.23 56.52 30.28 59.43 35.32 62.34 40.37 65.26 45.41 68.17 50.45 71.08 60.54 76.9 65.59 79.82 75.68 85.64 80.72 88.56 85.77 91.47"/>
      <polygon class="cls-2" points="166 50.97 166 62.62 161.43 65.26 156.39 68.17 151.34 71.08 146.3 73.99 141.25 76.91 136.21 79.81 131.17 82.73 126.12 85.64 121.08 88.56 121.07 88.56 116.03 91.46 110.99 94.38 105.94 97.29 105.94 155.54 116.03 149.72 121.07 146.8 121.08 146.8 126.12 143.89 136.21 138.07 141.25 135.15 161.43 123.51 166 120.87 166 131.97 160.96 134.88 156.39 137.51 150.87 140.7 146.3 143.34 140.78 146.53 136.21 149.16 130.69 152.35 126.12 154.99 120.6 158.18 116.03 160.81 110.51 164 105.94 166.64 100.42 169.83 95.85 172.46 95.85 91.46 100.9 88.56 105.94 85.64 110.99 82.73 116.03 79.81 121.07 76.9 126.12 73.99 131.16 71.08 136.21 68.16 141.25 65.26 146.3 62.34 151.34 59.43 156.39 56.51 161.43 53.61 166 50.97"/>
      <path class="cls-2" d="M156.39,39.59l-5.52-3.19-4.57-2.64-5.52-3.19-4.57-2.64-5.52-3.19-4.57-2.64-5.52-3.19-4.57-2.64-5.52-3.19-4.57-2.63-5.52-3.19-4.57-2.64-5.04-2.91-5.04,2.91-4.57,2.64h0l-5.52,3.19-4.57,2.64-5.52,3.19-4.57,2.64-5.52,3.19-4.57,2.64-5.52,3.19-4.57,2.64-5.52,3.19-4.57,2.64-5.52,3.19-4.57,2.64,4.57,2.64,5.04,2.91,5.04-2.91,10.09-5.82,5.04-2.91,5.04-2.91,5.04-2.91h0l5.04,2.91,5.04,2.91,5.05,2.91,5.04,2.91,5.05,2.91,5.04,2.91,5.04,2.91,5.04,2.91,5.05,2.91,5.04,2.91,5.05,2.91,5.04,2.91,5.05-2.91,5.04-2.91h0l5.04-2.91,10.09-5.82,5.04-2.91,5.05-2.91,4.57-2.64-4.57-2.64ZM131.17,47.78l-5.04,2.91-5.05,2.91-5.04-2.91-5.05-2.91-5.04-2.91-10.09-5.82-5.04-2.91h0l-5.04-2.91-5.05-2.91-5.04-2.91-5.04-2.91,5.04-2.91,5.04-2.91,5.04-2.91,5.04-2.91,5.04,2.91,5.04,2.91,5.05,2.91,5.04,2.91,5.05,2.91,5.04,2.91,5.05,2.91,5.04,2.91,5.05,2.91,5.04,2.91-5.04,2.91-5.04,2.91Z"/>
    </g>
    <text class="cls-1" transform="translate(0 210.31)"><tspan x="0" y="0">SecureCheckPlus</tspan></text>
    <text class="cls-3" transform="translate(116.23 230.31)"><tspan x="0" y="0">by</tspan><tspan class="cls-4" x="16.9" y="0"> </tspan><tspan x="20.75" y="0">Accso</tspan></text>
  </g>
</svg>